<svg xmlns="http://www.w3.org/2000/svg" viewBox="0 0 1200 750" width="1200" height="750">
  <rect width="1200" height="750" fill="#0F172A"/>
  <rect x="0" y="0" width="1200" height="64" fill="#16213A"/>
  <circle cx="32" cy="32" r="6" fill="#2563EB"/>
  <rect x="56" y="24" width="140" height="16" rx="4" fill="#334155"/>
  <rect x="900" y="20" width="80" height="24" rx="12" fill="#2563EB"/>
  <rect x="1000" y="20" width="60" height="24" rx="12" fill="#334155"/>
  <rect x="40" y="96" width="220" height="580" rx="10" fill="#16213A"/>
  <rect x="64" y="128" width="172" height="14" rx="4" fill="#334155"/>
  <rect x="64" y="164" width="172" height="10" rx="4" fill="#3B82F6"/>
  <rect x="64" y="188" width="140" height="10" rx="4" fill="#293548"/>
  <rect x="64" y="212" width="160" height="10" rx="4" fill="#293548"/>
  <rect x="64" y="236" width="120" height="10" rx="4" fill="#293548"/>
  <rect x="288" y="96" width="872" height="270" rx="10" fill="#16213A"/>
  <rect x="316" y="124" width="220" height="16" rx="4" fill="#CBD5E1"/>
  <polyline points="320,320 420,260 520,290 620,200 720,240 820,160 920,200 1020,150 1120,190" fill="none" stroke="#22D3EE" stroke-width="4"/>
  <polyline points="320,340 420,320 520,330 620,300 720,310 820,280 920,300 1020,270 1120,285" fill="none" stroke="#3B82F6" stroke-width="4"/>
  <rect x="288" y="390" width="424" height="286" rx="10" fill="#16213A"/>
  <rect x="316" y="418" width="200" height="16" rx="4" fill="#CBD5E1"/>
  <rect x="316" y="456" width="368" height="44" rx="8" fill="#1E293B"/>
  <rect x="316" y="510" width="368" height="44" rx="8" fill="#1E293B"/>
  <rect x="316" y="564" width="368" height="44" rx="8" fill="#1E293B"/>
  <rect x="736" y="390" width="424" height="286" rx="10" fill="#16213A"/>
  <circle cx="948" cy="533" r="110" fill="none" stroke="#293548" stroke-width="28"/>
  <circle cx="948" cy="533" r="110" fill="none" stroke="#3B82F6" stroke-width="28" stroke-dasharray="480 691" transform="rotate(-90 948 533)"/>
</svg>
